#N canvas 0 25 1512 930 12;
#X obj 142 178 metro 10000;
#X obj 142 223 bng 19 250 50 0 empty empty empty 0 -10 0 12 #fcfcfc #000000 #000000;
#X obj 52 325 phasor~;
#X obj 52 348 lop~ 6000;
#X obj 52 391 *~;
#X obj 954 546 dac~;
#X floatatom 52 256 5 0 0 0 - - - 0;
#X obj 52 278 mtof;
#X floatatom 52 301 5 0 0 0 - - - 0;
#X obj 142 325 line 0 3;
#X floatatom 142 349 5 0 0 0 - - - 0;
#X msg 142 287 0.1 300;
#X msg 219 287 0 700;
#X obj 219 264 delay 2000;
#X obj 961 389 catch~ out;
#X obj 52 442 throw~ out;
#X floatatom 216 135 5 0 0 0 - - - 0;
#X obj 947 126 bng 40 250 50 0 empty empty empty 0 -10 0 12 #fcfcfc #000000 #000000;
#X obj 947 175 s random;
#X obj 855 128 tgl 40 0 empty empty empty 0 -10 0 12 #fcfcfc #000000 #000000 0 1;
#X obj 855 174 s toggle;
#X obj 947 100 loadbang;
#X obj 839 251 loadbang;
#X obj 839 317 s note1;
#X obj 897 317 s note2;
#X obj 955 317 s note3;
#X obj 1013 317 s note4;
#X obj 1071 317 s note5;
#X obj 1129 317 s note6;
#X text 835 -21 CONTROLS;
#X text 148 -23 RANDOM AMBIENT BASELINE;
#X text 946 67 Randomise;
#X text 838 215 Pitches for baseline;
#X obj 839 388 r toggle;
#X obj 839 412 metro 3;
#X obj 839 477 snapshot~;
#X obj 860 444 osc~ 4;
#X floatatom 839 500 5 0 0 0 - - - 0;
#X obj 839 522 * 0.075;
#X obj 839 545 s LFO;
#X obj 995 429 hip~ 600;
#X obj 995 452 delwrite~ delBuff 900;
#X obj 995 475 delread~ delBuff 900;
#X obj 995 498 *~ 0.9;
#X obj 995 521 throw~ out;
#X obj 52 232 +;
#X floatatom 70 211 5 0 0 0 - - - 0;
#X obj 52 164 r LFO;
#X obj 142 136 r toggle;
#X obj 216 111 + 10000;
#X obj 216 86 random 30000;
#X obj 216 61 r random;
#X floatatom 286 234 5 0 0 0 - - - 0;
#X obj 286 208 + 10000;
#X obj 286 158 r random;
#X obj 286 183 random 3000;
#X obj 70 188 r note1;
#X obj 52 416 *~ 0.1;
#X obj 487 171 metro 10000;
#X obj 487 216 bng 19 250 50 0 empty empty empty 0 -10 0 12 #fcfcfc #000000 #000000;
#X obj 397 318 phasor~;
#X obj 397 341 lop~ 6000;
#X obj 397 384 *~;
#X floatatom 397 249 5 0 0 0 - - - 0;
#X obj 397 271 mtof;
#X floatatom 397 294 5 0 0 0 - - - 0;
#X obj 487 318 line 0 3;
#X floatatom 487 342 5 0 0 0 - - - 0;
#X msg 487 280 0.1 300;
#X msg 564 280 0 700;
#X obj 564 257 delay 2000;
#X obj 397 435 throw~ out;
#X floatatom 561 128 5 0 0 0 - - - 0;
#X obj 397 225 +;
#X floatatom 415 204 5 0 0 0 - - - 0;
#X obj 397 157 r LFO;
#X obj 487 129 r toggle;
#X obj 561 104 + 10000;
#X obj 561 79 random 30000;
#X obj 561 54 r random;
#X floatatom 631 227 5 0 0 0 - - - 0;
#X obj 631 201 + 10000;
#X obj 631 151 r random;
#X obj 631 176 random 3000;
#X obj 397 409 *~ 0.1;
#X obj 149 530 metro 10000;
#X obj 149 575 bng 19 250 50 0 empty empty empty 0 -10 0 12 #fcfcfc #000000 #000000;
#X obj 59 677 phasor~;
#X obj 59 700 lop~ 6000;
#X obj 59 743 *~;
#X floatatom 59 608 5 0 0 0 - - - 0;
#X obj 59 630 mtof;
#X floatatom 59 653 5 0 0 0 - - - 0;
#X obj 149 677 line 0 3;
#X floatatom 149 701 5 0 0 0 - - - 0;
#X msg 149 639 0.1 300;
#X msg 226 639 0 700;
#X obj 226 616 delay 2000;
#X obj 59 794 throw~ out;
#X floatatom 223 487 5 0 0 0 - - - 0;
#X obj 59 584 +;
#X floatatom 77 563 5 0 0 0 - - - 0;
#X obj 59 516 r LFO;
#X obj 149 488 r toggle;
#X obj 223 463 + 10000;
#X obj 223 438 random 30000;
#X obj 223 413 r random;
#X floatatom 293 586 5 0 0 0 - - - 0;
#X obj 293 560 + 10000;
#X obj 293 510 r random;
#X obj 293 535 random 3000;
#X obj 514 528 metro 10000;
#X obj 514 573 bng 19 250 50 0 empty empty empty 0 -10 0 12 #fcfcfc #000000 #000000;
#X obj 424 675 phasor~;
#X obj 424 698 lop~ 6000;
#X obj 424 741 *~;
#X floatatom 424 606 5 0 0 0 - - - 0;
#X obj 424 628 mtof;
#X floatatom 424 651 5 0 0 0 - - - 0;
#X obj 514 675 line 0 3;
#X floatatom 514 699 5 0 0 0 - - - 0;
#X msg 514 637 0.1 300;
#X msg 591 637 0 700;
#X obj 591 614 delay 2000;
#X obj 424 792 throw~ out;
#X floatatom 588 485 5 0 0 0 - - - 0;
#X obj 424 582 +;
#X floatatom 442 561 5 0 0 0 - - - 0;
#X obj 424 514 r LFO;
#X obj 514 486 r toggle;
#X obj 588 461 + 10000;
#X obj 588 436 random 30000;
#X obj 588 411 r random;
#X floatatom 658 584 5 0 0 0 - - - 0;
#X obj 658 558 + 10000;
#X obj 658 508 r random;
#X obj 658 533 random 3000;
#X obj 415 181 r note2;
#X obj 77 540 r note3;
#X obj 442 538 r note4;
#X obj 152 941 metro 10000;
#X obj 152 986 bng 19 250 50 0 empty empty empty 0 -10 0 12 #fcfcfc #000000 #000000;
#X obj 62 1088 phasor~;
#X obj 62 1111 lop~ 6000;
#X obj 62 1154 *~;
#X floatatom 62 1019 5 0 0 0 - - - 0;
#X obj 62 1041 mtof;
#X floatatom 62 1064 5 0 0 0 - - - 0;
#X obj 152 1088 line 0 3;
#X floatatom 152 1112 5 0 0 0 - - - 0;
#X msg 152 1050 0.1 300;
#X msg 229 1050 0 700;
#X obj 229 1027 delay 2000;
#X obj 62 1205 throw~ out;
#X floatatom 226 898 5 0 0 0 - - - 0;
#X obj 62 995 +;
#X floatatom 80 974 5 0 0 0 - - - 0;
#X obj 62 927 r LFO;
#X obj 152 899 r toggle;
#X obj 226 874 + 10000;
#X obj 226 849 random 30000;
#X obj 226 824 r random;
#X floatatom 296 997 5 0 0 0 - - - 0;
#X obj 296 971 + 10000;
#X obj 296 921 r random;
#X obj 296 946 random 3000;
#X obj 80 951 r note5;
#X obj 524 935 metro 10000;
#X obj 524 980 bng 19 250 50 0 empty empty empty 0 -10 0 12 #fcfcfc #000000 #000000;
#X obj 434 1082 phasor~;
#X obj 434 1105 lop~ 6000;
#X obj 434 1148 *~;
#X floatatom 434 1013 5 0 0 0 - - - 0;
#X obj 434 1035 mtof;
#X floatatom 434 1058 5 0 0 0 - - - 0;
#X obj 524 1082 line 0 3;
#X floatatom 524 1106 5 0 0 0 - - - 0;
#X msg 524 1044 0.1 300;
#X msg 601 1044 0 700;
#X obj 601 1021 delay 2000;
#X obj 434 1199 throw~ out;
#X floatatom 598 892 5 0 0 0 - - - 0;
#X obj 434 989 +;
#X floatatom 452 968 5 0 0 0 - - - 0;
#X obj 434 921 r LFO;
#X obj 524 893 r toggle;
#X obj 598 868 + 10000;
#X obj 598 843 random 30000;
#X obj 598 818 r random;
#X floatatom 668 991 5 0 0 0 - - - 0;
#X obj 668 965 + 10000;
#X obj 668 915 r random;
#X obj 668 940 random 3000;
#X obj 452 945 r note6;
#X msg 839 293 40;
#X msg 897 293 43;
#X msg 955 293 45;
#X msg 1071 293 50;
#X msg 1129 293 52;
#X obj 59 768 *~ 0.2;
#X obj 434 1173 *~ 0.3;
#X obj 62 1179 *~ 0.3;
#X obj 424 766 *~ 0.2;
#X text 845 27 Master Toggle for Ambeint Base;
#X msg 1013 293 47;
#X connect 0 0 1 0;
#X connect 1 0 11 0;
#X connect 1 0 13 0;
#X connect 2 0 3 0;
#X connect 3 0 4 0;
#X connect 4 0 57 0;
#X connect 6 0 7 0;
#X connect 7 0 8 0;
#X connect 8 0 2 0;
#X connect 9 0 10 0;
#X connect 10 0 4 1;
#X connect 11 0 9 0;
#X connect 12 0 9 0;
#X connect 13 0 12 0;
#X connect 14 0 5 0;
#X connect 14 0 5 1;
#X connect 14 0 40 0;
#X connect 16 0 0 1;
#X connect 17 0 18 0;
#X connect 19 0 20 0;
#X connect 21 0 17 0;
#X connect 22 0 194 0;
#X connect 22 0 195 0;
#X connect 22 0 196 0;
#X connect 22 0 204 0;
#X connect 22 0 197 0;
#X connect 22 0 198 0;
#X connect 33 0 34 0;
#X connect 34 0 35 0;
#X connect 35 0 37 0;
#X connect 36 0 35 0;
#X connect 37 0 38 0;
#X connect 38 0 39 0;
#X connect 40 0 41 0;
#X connect 42 0 43 0;
#X connect 43 0 44 0;
#X connect 45 0 6 0;
#X connect 46 0 45 1;
#X connect 47 0 45 0;
#X connect 48 0 0 0;
#X connect 49 0 16 0;
#X connect 50 0 49 0;
#X connect 51 0 50 0;
#X connect 52 0 13 1;
#X connect 53 0 52 0;
#X connect 54 0 55 0;
#X connect 55 0 53 0;
#X connect 56 0 46 0;
#X connect 57 0 15 0;
#X connect 58 0 59 0;
#X connect 59 0 68 0;
#X connect 59 0 70 0;
#X connect 60 0 61 0;
#X connect 61 0 62 0;
#X connect 62 0 84 0;
#X connect 63 0 64 0;
#X connect 64 0 65 0;
#X connect 65 0 60 0;
#X connect 66 0 67 0;
#X connect 67 0 62 1;
#X connect 68 0 66 0;
#X connect 69 0 66 0;
#X connect 70 0 69 0;
#X connect 72 0 58 1;
#X connect 73 0 63 0;
#X connect 74 0 73 1;
#X connect 75 0 73 0;
#X connect 76 0 58 0;
#X connect 77 0 72 0;
#X connect 78 0 77 0;
#X connect 79 0 78 0;
#X connect 80 0 70 1;
#X connect 81 0 80 0;
#X connect 82 0 83 0;
#X connect 83 0 81 0;
#X connect 84 0 71 0;
#X connect 85 0 86 0;
#X connect 86 0 95 0;
#X connect 86 0 97 0;
#X connect 87 0 88 0;
#X connect 88 0 89 0;
#X connect 89 0 199 0;
#X connect 90 0 91 0;
#X connect 91 0 92 0;
#X connect 92 0 87 0;
#X connect 93 0 94 0;
#X connect 94 0 89 1;
#X connect 95 0 93 0;
#X connect 96 0 93 0;
#X connect 97 0 96 0;
#X connect 99 0 85 1;
#X connect 100 0 90 0;
#X connect 101 0 100 1;
#X connect 102 0 100 0;
#X connect 103 0 85 0;
#X connect 104 0 99 0;
#X connect 105 0 104 0;
#X connect 106 0 105 0;
#X connect 107 0 97 1;
#X connect 108 0 107 0;
#X connect 109 0 110 0;
#X connect 110 0 108 0;
#X connect 111 0 112 0;
#X connect 112 0 121 0;
#X connect 112 0 123 0;
#X connect 113 0 114 0;
#X connect 114 0 115 0;
#X connect 115 0 202 0;
#X connect 116 0 117 0;
#X connect 117 0 118 0;
#X connect 118 0 113 0;
#X connect 119 0 120 0;
#X connect 120 0 115 1;
#X connect 121 0 119 0;
#X connect 122 0 119 0;
#X connect 123 0 122 0;
#X connect 125 0 111 1;
#X connect 126 0 116 0;
#X connect 127 0 126 1;
#X connect 128 0 126 0;
#X connect 129 0 111 0;
#X connect 130 0 125 0;
#X connect 131 0 130 0;
#X connect 132 0 131 0;
#X connect 133 0 123 1;
#X connect 134 0 133 0;
#X connect 135 0 136 0;
#X connect 136 0 134 0;
#X connect 137 0 74 0;
#X connect 138 0 101 0;
#X connect 139 0 127 0;
#X connect 140 0 141 0;
#X connect 141 0 150 0;
#X connect 141 0 152 0;
#X connect 142 0 143 0;
#X connect 143 0 144 0;
#X connect 144 0 201 0;
#X connect 145 0 146 0;
#X connect 146 0 147 0;
#X connect 147 0 142 0;
#X connect 148 0 149 0;
#X connect 149 0 144 1;
#X connect 150 0 148 0;
#X connect 151 0 148 0;
#X connect 152 0 151 0;
#X connect 154 0 140 1;
#X connect 155 0 145 0;
#X connect 156 0 155 1;
#X connect 157 0 155 0;
#X connect 158 0 140 0;
#X connect 159 0 154 0;
#X connect 160 0 159 0;
#X connect 161 0 160 0;
#X connect 162 0 152 1;
#X connect 163 0 162 0;
#X connect 164 0 165 0;
#X connect 165 0 163 0;
#X connect 166 0 156 0;
#X connect 167 0 168 0;
#X connect 168 0 177 0;
#X connect 168 0 179 0;
#X connect 169 0 170 0;
#X connect 170 0 171 0;
#X connect 171 0 200 0;
#X connect 172 0 173 0;
#X connect 173 0 174 0;
#X connect 174 0 169 0;
#X connect 175 0 176 0;
#X connect 176 0 171 1;
#X connect 177 0 175 0;
#X connect 178 0 175 0;
#X connect 179 0 178 0;
#X connect 181 0 167 1;
#X connect 182 0 172 0;
#X connect 183 0 182 1;
#X connect 184 0 182 0;
#X connect 185 0 167 0;
#X connect 186 0 181 0;
#X connect 187 0 186 0;
#X connect 188 0 187 0;
#X connect 189 0 179 1;
#X connect 190 0 189 0;
#X connect 191 0 192 0;
#X connect 192 0 190 0;
#X connect 193 0 183 0;
#X connect 194 0 23 0;
#X connect 195 0 24 0;
#X connect 196 0 25 0;
#X connect 197 0 27 0;
#X connect 198 0 28 0;
#X connect 199 0 98 0;
#X connect 200 0 180 0;
#X connect 201 0 153 0;
#X connect 202 0 124 0;
#X connect 204 0 26 0;
